<?xml version="1.0" encoding="UTF-8" standalone="no"?>
<svg xmlns="http://www.w3.org/2000/svg" xmlns:svg="http://www.w3.org/2000/svg" version="1.1" viewBox="0 0 2797 1180">
  <defs>
    <style type="text/css">
  .fil0 {fill:black}
  
 </style>
  </defs>
  <g style="display:inline">
    <g transform="matrix(0.78357808,0,0,1,-4.4768055,0)">
      <path d="M 3.3761856,6.7522839 H 3575.3762 V 1111.7524 h -162 v 58 c 0,9 -7,16 -16,16 h -350 c -9,0 -16,-7 -16,-16 v -58 H 545.37617 v 58 c 0,9 -7,16 -16,16 h -350 c -9,0 -16,-7 -16,-16 v -58 H 1.3761856 V 6.7522839 Z"></path>
    </g>
  </g>
  <g style="display:inline">
    <path d="m 279.22531,253.54928 c 82.353,0 150,67.64706 150,150 0,82.35294 -67.647,150 -150,150 -82.3529,0 -149.99996,-67.64706 -149.99996,-150 0,-82.35294 67.64706,-150 149.99996,-150 z" style="fill:#ffccaa;"></path>
    <path d="m 285.87321,803 c 41.4474,0 75,33.55263 75,75.00001 0,41.44736 -33.5526,74.99999 -75,74.99999 -41.4474,0 -75,-33.55263 -75,-74.99999 0,-41.44738 33.5526,-75.00001 75,-75.00001 z" style="fill:#ffccaa;"></path>
    <path d="m 791.73341,768 c 60.9783,0 110,49.02174 110,110 0,60.97826 -49.0217,110 -110,110 -60.9783,0 -110,-49.02174 -110,-110 0,-60.97826 49.0217,-110 110,-110 z" style="fill:#d7f4d7;"></path>
    <path d="m 1818.1481,767.24764 c 60.9783,0 110,49.02174 110,110 0,60.97826 -49.0217,110 -110,110 -60.9783,0 -110,-49.02174 -110,-110 0,-60.97826 49.0217,-110 110,-110 z" style="fill:#d7f4d7;"></path>
    <path d="m 1146.7334,768 c 60.9783,0 110,49.02174 110,110 0,60.97826 -49.0217,110 -110,110 -60.9783,0 -110,-49.02174 -110,-110 0,-60.97826 49.0217,-110 110,-110 z" style="fill:#d7f4d7;"></path>
    <path d="m 1497.7334,768 c 60.9783,0 110,49.02174 110,110 0,60.97826 -49.0217,110 -110,110 -60.9783,0 -110,-49.02174 -110,-110 0,-60.97826 49.0217,-110 110,-110 z" style="fill:#d7f4d7;"></path>
  </g>
  <g>
    <path d="m 2458.0994,127.45072 c 138.191,0 250,111.80905 250,250 0,138.19095 -111.809,250 -250,250 -138.191,0 -250,-111.80905 -250,-250 0,-138.19095 111.809,-250 250,-250 z" style="fill:#ffd5d5;"></path>
    <path d="M 585.63211,251.25372 H 2072.3667 v 294 l -1486.73459,4 v -299 z" style="fill:#afdde9;"></path>
    <path d="m 2283.172,808.44721 h 300 V 958.4472 h -300 z" style="fill:#ffffff;"></path>
  </g>
</svg>
