<svg xmlns:inkscape="http://www.inkscape.org/namespaces/inkscape" xmlns:sodipodi="http://sodipodi.sourceforge.net/DTD/sodipodi-0.dtd" xmlns="http://www.w3.org/2000/svg" xmlns:svg="http://www.w3.org/2000/svg" version="1.1" style=";" x="0px" y="0px" fill-rule="evenodd" clip-rule="evenodd" viewBox="0 0 3572 1180" sodipodi:docname="noun_Amplifier_126159.svg" inkscape:version="1.1.1 (3bf5ae0d25, 2021-09-20)">
 
 
 <g xmlns:inkscape="http://www.inkscape.org/namespaces/inkscape" inkscape:groupmode="layer" inkscape:label="Layer 1" style="display:inline">
  <g style="fill:#000">
   <path d="M 3.3761856,6.7522839 H 3575.3762 V 1111.7524 h -162 v 58 c 0,9 -7,16 -16,16 h -350 c -9,0 -16,-7 -16,-16 v -58 H 545.37617 v 58 c 0,9 -7,16 -16,16 h -350 c -9,0 -16,-7 -16,-16 v -58 H 1.3761856 V 6.7522839 Z"/>
  </g>
 </g>
 <g xmlns:inkscape="http://www.inkscape.org/namespaces/inkscape" inkscape:groupmode="layer" inkscape:label="Layer 2" style="display:inline;fill:#ffffff;">
  <path d="m 665,199 h 2263 v 5 c 37,-31 85,-49 137,-49 119,0 215,96 215,215 0,119 -96,215 -215,215 -52,0 -100,-19 -137,-49 v 5 H 665 Z"/>
  <path d="m 236,290 c 56,0 102,46 102,102 0,56 -46,102 -102,102 -56,0 -102,-46 -102,-102 0,-56 46,-102 102,-102 z"/>
  <path d="m 233,813 c 21,0 38,17 38,38 0,21 -17,38 -38,38 -21,0 -38,-17 -38,-38 0,-21 17,-38 38,-38 z"/>
  <path d="m 1600,768 c 51,0 92,41 92,92 0,51 -41,92 -92,92 -51,0 -92,-41 -92,-92 0,-51 41,-92 92,-92 z"/>
  <path d="m 1224,768 c 51,0 92,41 92,92 0,51 -41,92 -92,92 -51,0 -92,-41 -92,-92 0,-51 41,-92 92,-92 z"/>
  <path d="m 1973,768 c 51,0 92,41 92,92 0,51 -41,92 -92,92 -51,0 -92,-41 -92,-92 0,-51 41,-92 92,-92 z"/>
  <path d="m 2346,768 c 51,0 92,41 92,92 0,51 -41,92 -92,92 -51,0 -92,-41 -92,-92 0,-51 41,-92 92,-92 z"/>
 </g>
 <g xmlns:inkscape="http://www.inkscape.org/namespaces/inkscape" inkscape:groupmode="layer" inkscape:label="Layer 3">
  <path d="m 3066,171 c 110,0 199,89 199,199 0,110 -89,199 -199,199 -110,0 -199,-89 -199,-199 0,-110 89,-199 199,-199 z" style="fill:#ffd5d5"/>
  <path d="m 2346,784 c 42,0 75,34 75,75 0,42 -34,75 -75,75 -42,0 -75,-34 -75,-75 0,-42 34,-75 75,-75 z" style="fill:#afe9c6"/>
  <path d="m 687,221 h 2220 v 4 c -35,38 -57,89 -57,145 0,56 21,107 57,145 v 4 H 687 V 220 Z" style="fill:#afdde9"/>
  <path d="m 236,306 c 48,0 86,39 86,86 0,48 -39,86 -86,86 -48,0 -86,-39 -86,-86 0,-48 39,-86 86,-86 z" style="fill:#ffccaa"/>
  <path d="m 3289,822 h 120 v 57 h -120 z" style="fill:#ffffff"/>
  <path d="m 3092,824 c 15,0 27,12 27,27 0,15 -12,27 -27,27 -15,0 -27,-12 -27,-27 0,-15 12,-27 27,-27 z" style="fill:#ffffff"/>
  <path d="m 2942,824 c 15,0 27,12 27,27 0,15 -12,27 -27,27 -15,0 -27,-12 -27,-27 0,-15 12,-27 27,-27 z" style="fill:#ffffff"/>
  <path d="m 2795,824 c 15,0 27,12 27,27 0,15 -12,27 -27,27 -15,0 -27,-12 -27,-27 0,-15 12,-27 27,-27 z" style="fill:#ffffff"/>
  <path d="m 2645,824 c 15,0 27,12 27,27 0,15 -12,27 -27,27 -15,0 -27,-12 -27,-27 0,-15 12,-27 27,-27 z" style="fill:#ffffff"/>
  <path d="m 928,824 c 15,0 27,12 27,27 0,15 -12,27 -27,27 -15,0 -27,-12 -27,-27 0,-15 12,-27 27,-27 z" style="fill:#ffffff"/>
  <path d="m 777,824 c 15,0 27,12 27,27 0,15 -12,27 -27,27 -15,0 -27,-12 -27,-27 0,-15 12,-27 27,-27 z" style="fill:#ffffff"/>
  <path d="m 485,824 c 15,0 27,12 27,27 0,15 -12,27 -27,27 -15,0 -27,-12 -27,-27 0,-15 12,-27 27,-27 z" style="fill:#ffffff"/>
  <path d="m 233,824 c 15,0 27,12 27,27 0,15 -12,27 -27,27 -15,0 -27,-12 -27,-27 0,-15 12,-27 27,-27 z" style="fill:#ffccaa"/>
  <path d="m 1224,784 c 42,0 75,34 75,75 0,42 -34,75 -75,75 -42,0 -75,-34 -75,-75 0,-42 34,-75 75,-75 z" style="fill:#afe9c6"/>
  <path d="m 1973,784 c 42,0 75,34 75,75 0,42 -34,75 -75,75 -42,0 -75,-34 -75,-75 0,-42 34,-75 75,-75 z" style="fill:#afe9c6"/>
  <path d="m 1600,784 c 42,0 75,34 75,75 0,42 -34,75 -75,75 -42,0 -75,-34 -75,-75 0,-42 34,-75 75,-75 z" style="fill:#afe9c6"/>
 </g>
</svg>
